[img]http://img59.imageshack.us/img59/7264/jackdx.jpg[/img]
[code]
Hugo 2011 CaM XviD AC3-26K

Imdb: 
http://www.imdb.com/title/tt0810913/

Plot:
Family guy Jack Sadelstein prepares for the annual event he dreads: the Thanksgiving visit of his twin 

sister, the needy and passive-aggressive Jill, who then refuses to leave.

Sources:
FYA THNXS MAN!

Notes:
Encoded the video added a few filters to make it look nice :)

Greetz:
To all the people who have helped me :P you know who you are

Anything to offer email us @: 26k@hushmail.me

Video
ID                                       : 0
Format                                   : MPEG-4 Visual
Format profile                           : Advanced Simple@L5
Format settings, BVOP                    : 2
Format settings, QPel                    : No
Format settings, GMC                     : No warppoints
Format settings, Matrix                  : Default (H.263)
Codec ID                                 : XVID
Codec ID/Hint                            : XviD
Duration                                 : 1h 27mn
Bit rate                                 : 2 200 Kbps
Width                                    : 720 pixels
Height                                   : 320 pixels
Display aspect ratio                     : 2.25:1
Frame rate                               : 24.000 fps
Color space                              : YUV
Chroma subsampling                       : 4:2:0
Bit depth                                : 8 bits
Scan type                                : Progressive
Compression mode                         : Lossy
Bits/(Pixel*Frame)                       : 0.398
Stream size                              : 1.35 GiB (92%)
Writing library                          : XviD 63

Audio
ID                                       : 1
Format                                   : AC-3
Format/Info                              : Audio Coding 3
Mode extension                           : CM (complete main)
Codec ID                                 : 2000
Duration                                 : 1h 27mn
Bit rate mode                            : Constant
Bit rate                                 : 192 Kbps
Channel(s)                               : 2 channels
Channel positions                        : Front: L R
Sampling rate                            : 44.1 KHz
Bit depth                                : 16 bits
Compression mode                         : Lossy
Stream size                              : 120 MiB (8%)
Alignment                                : Aligned on interleaves
Interleave, duration                     : 35 ms (0.84 video frame)

[/code]
Screens:
[img]http://img857.imageshack.us/img857/8421/vlcsnap2011121023h10m39.png[/img]
[img]http://img804.imageshack.us/img804/2958/vlcsnap2011121023h11m04.png[/img]
[img]http://img820.imageshack.us/img820/9550/vlcsnap2011121023h11m07.png[/img]
[img]http://img27.imageshack.us/img27/8753/vlcsnap2011121023h11m17.png[/img]
[img]http://img26.imageshack.us/img26/426/vlcsnap2011121023h11m21.png[/img]

[img]http://img851.imageshack.us/img851/5503/26ks.jpg[/img]#
Thank you smallz for banner!
